<svg xmlns="http://www.w3.org/2000/svg" width="63" height="58" viewBox="0 0 63 58">
  <defs>
    <style>
      .cls-1 {
        fill: #1b1a16;
        fill-rule: evenodd;
      }
    </style>
  </defs>
  <path id="Search_копия" data-name="Search копия" class="cls-1" d="M40.266,33.921A15.6,15.6,0,0,0,36.429,11.9a16.3,16.3,0,0,0-22.446,3.765,15.6,15.6,0,0,0,3.838,22.016,16.362,16.362,0,0,0,17.493.71L47.187,49.97a3.416,3.416,0,0,0,4.764.119,3.26,3.26,0,0,0,.123-4.672c-0.041-.042-0.08-0.081-0.123-0.12ZM27.115,35a10.377,10.377,0,1,1,.007,0H27.115Z"/>
</svg>
